<svg xmlns="http://www.w3.org/2000/svg" xmlns:xlink="http://www.w3.org/1999/xlink" contentStyleType="text/css" data-diagram-type="DESCRIPTION" height="1091.6667px" preserveAspectRatio="none" style="width:2471px;height:1091px;" version="1.1" viewBox="0 0 2471 1091" width="2471.875px" zoomAndPan="magnify"><title>Deployment Diagram</title><defs><linearGradient id="g1db8yzr7h0ylc0" x1="50%" x2="50%" y1="0%" y2="100%"><stop offset="0%" stop-color="#FFFFFF"/><stop offset="100%" stop-color="#FFFFFF"/></linearGradient><filter height="300%" id="f1db8yzr7h0ylc" width="300%" x="-1" y="-1"><feGaussianBlur result="blurOut" stdDeviation="2.0833"/><feColorMatrix in="blurOut" result="blurOut2" type="matrix" values="0 0 0 0 0 0 0 0 0 0 0 0 0 0 0 0 0 0 .4 0"/><feOffset dx="4.1667" dy="4.1667" in="blurOut2" result="blurOut3"/><feBlend in="SourceGraphic" in2="blurOut3" mode="normal"/></filter><linearGradient id="g1db8yzr7h0ylc1" x1="50%" x2="50%" y1="0%" y2="100%"><stop offset="0%" stop-color="#4DABF5"/><stop offset="100%" stop-color="#2196F3"/></linearGradient><linearGradient id="g1db8yzr7h0ylc2" x1="50%" x2="50%" y1="0%" y2="100%"><stop offset="0%" stop-color="#FFAD33"/><stop offset="100%" stop-color="#FF9800"/></linearGradient></defs><g><g class="title" data-source-line="3"><rect fill="url(#g1db8yzr7h0ylc0)" height="57.5846" rx="4.1667" ry="4.1667" style="stroke:#CCCCCC;stroke-width:1.0417;" width="282.0313" x="1090.2564" y="20.8333"/><text fill="#2196F3" font-family="Verdana" font-size="20.8333" font-weight="bold" lengthAdjust="spacing" textLength="248.6979" x="1106.9231" y="56.838">Deployment Diagram</text></g><!--cluster User Device--><g class="cluster" data-entity="User Device" data-source-line="11" data-uid="ent0003" id="cluster_User Device"><polygon fill="url(#g1db8yzr7h0ylc0)" filter="url(#f1db8yzr7h0ylc)" points="976.7188,888.5491,987.1354,878.1324,1231.0521,878.1324,1231.0521,1010.4241,1220.6354,1020.8408,976.7188,1020.8408,976.7188,888.5491" style="stroke:#2196F3;stroke-width:1.0417;"/><line style="stroke:#2196F3;stroke-width:1.0417;" x1="1220.6354" x2="1231.0521" y1="888.5491" y2="878.1324"/><line style="stroke:#2196F3;stroke-width:1.0417;" x1="976.7188" x2="1220.6354" y1="888.5491" y2="888.5491"/><line style="stroke:#2196F3;stroke-width:1.0417;" x1="1220.6354" x2="1220.6354" y1="888.5491" y2="1020.8408"/><text fill="#222222" font-family="Verdana" font-size="12.5" font-weight="bold" lengthAdjust="spacing" textLength="83.7585" x="1057.8395" y="913.6936">User Device</text></g><!--cluster CDN / Web Hosting--><g class="cluster" data-entity="CDN / Web Hosting" data-source-line="16" data-uid="ent0005" id="cluster_CDN / Web Hosting"><path d="M1474.1239,751.1681 C1484.6231,737.7672 1492.5825,741.9522 1500.7013,753.6852 C1508.4543,743.0085 1517.0673,739.9814 1525.4453,753.0335 C1533.7841,740.6813 1542.0492,736.3899 1552.81,750.5318 C1558.6777,738.0251 1571.4261,733.716 1580.8896,746.5468 C1587.7929,736.5543 1597.9834,737.5643 1603.5311,748.0459 C1608.2024,734.3401 1620.1313,731.7156 1629.4686,743.2512 C1637.1248,726.9106 1650.2371,729.3763 1659.5928,741.4494 C1666.946,729.8294 1678.7203,731.1947 1683.4327,744.0244 C1692.2306,732.2466 1702.7822,732.4855 1710.6846,745.0278 C1721.8134,732.2001 1730.8921,736.9938 1737.5417,749.7331 C1744.7031,739.3564 1756.082,736.7751 1763.329,749.6381 C1770.9433,737.8151 1782.078,738.3359 1789.0557,750.3257 C1796.9819,736.338 1808.8772,736.9456 1816.665,750.4646 C1828.9121,740.6661 1841.051,739.9824 1845.6458,758.3408 C1847.1039,756.3045 1849.1633,756.7958 1849.9364,759.0292 C1863.2518,769.7569 1867.2627,780.2685 1849.9602,791.019 C1865.4089,800.6589 1865.9635,812.5957 1852.4083,824.3649 C1864.5818,831.8948 1864.6032,845.4062 1853.0582,853.4659 C1867.1845,864.0927 1864.2269,874.7948 1850.7713,883.3079 C1865.606,892.2871 1864.155,902.9061 1852.0614,913.0533 C1864.5768,922.7766 1861.7924,937.6662 1847.8026,943.7071 C1861.3272,952.8098 1862.1533,964.4712 1849.2901,974.8349 C1864.9164,991.0658 1857.1977,1004.7852 1838.3542,1010.4241 C1842.0628,1010.173 1843.2077,1011.9367 1842.354,1015.373 C1833.6285,1028.5621 1824.8275,1029.01 1816.5225,1014.9741 C1807.4608,1027.1814 1795.4718,1027.3933 1788.9132,1012.4306 C1779.8114,1026.8546 1769.3989,1025.9829 1760.0695,1012.6673 C1752.7093,1025.2579 1743.8363,1023.6075 1735.7886,1013.3994 C1727.9788,1024.243 1720.0834,1025.5405 1711.5806,1014.154 C1703.2594,1029.9632 1691.2366,1030.0562 1682.365,1014.6694 C1675.3198,1024.9479 1666.7348,1025.7085 1660.445,1013.919 C1651.4141,1030.2917 1641.8769,1030.8935 1631.2472,1015.3831 C1622.6133,1027.1345 1611.4212,1028.6939 1603.4937,1014.6239 C1594.8653,1027.7345 1585.2595,1025.8353 1577.5334,1013.6962 C1572.0453,1024.6315 1562.8786,1027.15 1555.1283,1015.9903 C1544.9134,1027.6728 1536.17,1027.0352 1527.5583,1014.1885 C1519.7219,1025.6207 1507.5069,1028.2527 1499.8906,1013.9518 C1485.1547,1028.8953 1469.5215,1022.0861 1465.4271,1003.1324 C1467.419,1002.1881 1468.9233,1003.4143 1468.4758,1005.5483 C1454.689,998.5166 1454.3458,984.5691 1467.6459,976.7566 C1453.6873,968.9195 1448.34,954.774 1464.6831,944.1809 C1448.5887,936.069 1449.879,926.0188 1462.1191,915.384 C1447.6463,905.7499 1446.3775,894.9951 1462.3536,885.6007 C1446.944,875.2509 1444.6814,860.9265 1463.043,851.2545 C1451.8121,841.4093 1452.0388,829.4664 1466.9102,823.2223 C1452.2647,813.7462 1451.5748,799.3859 1468.6922,791.7057 C1451.6596,777.0723 1452.5266,761.9958 1472.7188,751.0491 C1473.1762,750.5195 1473.7756,750.4085 1474.1239,751.1681" fill="url(#g1db8yzr7h0ylc0)" filter="url(#f1db8yzr7h0ylc)" style="stroke:#2196F3;stroke-width:1.0417;"/><text fill="#222222" font-family="Verdana" font-size="12.5" font-weight="bold" lengthAdjust="spacing" textLength="133.4412" x="1588.8159" y="778.2769">CDN / Web Hosting</text></g><!--cluster FrontendHost--><g class="cluster" data-entity="FrontendHost" data-source-line="17" data-uid="ent0006" id="cluster_FrontendHost"><polygon fill="url(#g1db8yzr7h0ylc0)" filter="url(#f1db8yzr7h0ylc)" points="1490.4271,823.9658,1500.8438,813.5491,1820.6458,813.5491,1820.6458,975.0074,1810.2292,985.4241,1490.4271,985.4241,1490.4271,823.9658" style="stroke:#2196F3;stroke-width:1.0417;"/><line style="stroke:#2196F3;stroke-width:1.0417;" x1="1810.2292" x2="1820.6458" y1="823.9658" y2="813.5491"/><line style="stroke:#2196F3;stroke-width:1.0417;" x1="1490.4271" x2="1810.2292" y1="823.9658" y2="823.9658"/><line style="stroke:#2196F3;stroke-width:1.0417;" x1="1810.2292" x2="1810.2292" y1="823.9658" y2="985.4241"/><text fill="#222222" font-family="Verdana" font-size="12.5" font-weight="bold" lengthAdjust="spacing" textLength="232.0923" x="1535.3236" y="849.1102">Vercel / Amplify &#171;Static Hosting&#187;</text></g><!--cluster AWS Cloud (us-west-1)--><g class="cluster" data-entity="AWS Cloud (us-west-1)" data-source-line="27" data-uid="ent0009" id="cluster_AWS Cloud (us-west-1)"><path d="M414.2199,185.4807 C469.9315,109.9287 522.3449,119.1503 578.032,185.509 C603.7402,107.9528 671.5413,117.7967 713.106,168.8564 C752.2039,105.3721 799.3051,104.4267 838.1746,169.0793 C894.6471,112.7738 950.4906,98.2304 991.7139,185.3983 C1025.4401,123.3578 1072.6821,103.3181 1121.674,169.9839 C1168.9815,117.7482 1218.5576,106.7999 1258.3266,178.3089 C1305.1636,106.9828 1358.2593,122.6182 1401.6471,182.0885 C1437.0596,124.0521 1505.7616,122.5107 1543.4364,179.2949 C1583.0744,105.5079 1638.0321,113.1475 1684.657,171.8474 C1729.7228,114.299 1767.9231,112.8285 1809.6546,175.3194 C1862.2096,96.3609 1910.1848,100.1758 1963.1993,174.8602 C1995.705,112.8657 2049.3235,115.4424 2087.8933,168.275 C2133.5099,107.1386 2206.6826,96.1263 2240.77,180.3964 C2279.6355,121.5175 2330.7334,112.547 2373.6042,176.0491 C2387.1153,177.0189 2392.0407,185.5557 2387.203,197.9294 C2445.8711,230.7273 2436.1142,284.5082 2384.9443,315.1904 C2448.2427,359.2591 2451.1909,402.8947 2388.911,450.6409 C2446.7274,497.7918 2459.419,551.0891 2381.7202,591.3127 C2434.4358,636.5816 2433.9975,679.8255 2366.3125,709.3824 C2369.1157,705.3247 2373.3538,705.5834 2375.343,710.2272 C2327.8089,783.7409 2278.6604,770.1533 2230.5903,710.8111 C2194.5987,765.8709 2141.0321,772.0094 2101.3827,715.0294 C2071.0474,793.2674 1995.2588,809.3271 1948.0017,731.6794 C1910.1375,779.6801 1863.1989,781.991 1828.8138,727.6285 C1777.8218,796.3383 1730.4391,772.1774 1693.4051,712.8651 C1662.813,797.4523 1605.0549,805.921 1549.3843,736.2845 C1506.7133,797.4122 1444.8539,785.3861 1413.5967,723.6682 C1375.1293,784.3797 1315.395,783.8289 1275.293,725.5684 C1226.9501,797.5225 1165.2086,795.4815 1119.4916,722.741 C1079.2534,779.9972 1039.7602,780.4518 995.3014,727.4969 C950.9066,802.3892 897.3914,798.9193 848.4108,732.2555 C801.1254,805.9637 736.2956,803.3547 702.0623,720.087 C653.5609,795.8157 605.0094,780.2429 557.9299,718.5952 C499.8756,777.4347 449.6068,782.8041 406.7917,702.0908 C416.1434,693.2989 426.2505,698.0022 429.4598,709.0935 C368.0629,680.204 360.8457,627.3824 411.0702,582.3033 C341.9042,532.1987 354.6637,482.1775 423.0105,443.9398 C353.3204,409.9792 350.718,359.9969 415.8659,318.3647 C336.4786,272.8254 344.5702,216.0708 414.0833,168.7574 C421.8358,172.9287 421.1964,181.1891 414.2199,185.4807" fill="url(#g1db8yzr7h0ylc0)" filter="url(#f1db8yzr7h0ylc)" style="stroke:#2196F3;stroke-width:1.0417;"/><text fill="#222222" font-family="Verdana" font-size="12.5" font-weight="bold" lengthAdjust="spacing" textLength="161.3403" x="1309.5278" y="195.9852">AWS Cloud (us-west-1)</text></g><!--cluster EBEnv--><g class="cluster" data-entity="EBEnv" data-source-line="29" data-uid="ent0010" id="cluster_EBEnv"><polygon fill="url(#g1db8yzr7h0ylc0)" filter="url(#f1db8yzr7h0ylc)" points="502.8958,316.6741,513.3125,306.2574,1897.8646,306.2574,1897.8646,673.9658,1887.4479,684.3824,502.8958,684.3824,502.8958,316.6741" style="stroke:#2196F3;stroke-width:1.0417;"/><line style="stroke:#2196F3;stroke-width:1.0417;" x1="1887.4479" x2="1897.8646" y1="316.6741" y2="306.2574"/><line style="stroke:#2196F3;stroke-width:1.0417;" x1="502.8958" x2="1887.4479" y1="316.6741" y2="316.6741"/><line style="stroke:#2196F3;stroke-width:1.0417;" x1="1887.4479" x2="1887.4479" y1="316.6741" y2="684.3824"/><text fill="#222222" font-family="Verdana" font-size="12.5" font-weight="bold" lengthAdjust="spacing" textLength="376.0925" x="1008.1673" y="341.8186">Elastic Beanstalk (booktable-app-env) &#171;App Hosting&#187;</text></g><!--cluster EB_EC2--><g class="cluster" data-entity="EB_EC2" data-source-line="31" data-uid="ent0012" id="cluster_EB_EC2"><polygon fill="url(#g1db8yzr7h0ylc0)" filter="url(#f1db8yzr7h0ylc)" points="1095.1771,409.3824,1105.5938,398.9658,1856.1979,398.9658,1856.1979,632.2991,1845.7813,642.7158,1095.1771,642.7158,1095.1771,409.3824" style="stroke:#2196F3;stroke-width:1.0417;"/><line style="stroke:#2196F3;stroke-width:1.0417;" x1="1845.7813" x2="1856.1979" y1="409.3824" y2="398.9658"/><line style="stroke:#2196F3;stroke-width:1.0417;" x1="1095.1771" x2="1845.7813" y1="409.3824" y2="409.3824"/><line style="stroke:#2196F3;stroke-width:1.0417;" x1="1845.7813" x2="1845.7813" y1="409.3824" y2="642.7158"/><text fill="#222222" font-family="Verdana" font-size="12.5" font-weight="bold" lengthAdjust="spacing" textLength="166.7236" x="1388.159" y="434.5269">EC2 Auto Scaling Group</text></g><!--cluster Docker Container--><g class="cluster" data-entity="Docker Container" data-source-line="32" data-uid="ent0013" id="cluster_Docker Container"><polygon fill="url(#g1db8yzr7h0ylc0)" filter="url(#f1db8yzr7h0ylc)" points="1488.2188,485.4241,1498.6354,475.0074,1822.8646,475.0074,1822.8646,598.9658,1812.4479,609.3824,1488.2188,609.3824,1488.2188,485.4241" style="stroke:#2196F3;stroke-width:1.0417;"/><line style="stroke:#2196F3;stroke-width:1.0417;" x1="1812.4479" x2="1822.8646" y1="485.4241" y2="475.0074"/><line style="stroke:#2196F3;stroke-width:1.0417;" x1="1488.2188" x2="1812.4479" y1="485.4241" y2="485.4241"/><line style="stroke:#2196F3;stroke-width:1.0417;" x1="1812.4479" x2="1812.4479" y1="485.4241" y2="609.3824"/><text fill="#222222" font-family="Verdana" font-size="12.5" font-weight="bold" lengthAdjust="spacing" textLength="122.5769" x="1590.0865" y="510.5686">Docker Container</text></g><!--cluster Google Cloud Platform--><g class="cluster" data-entity="Google Cloud Platform" data-source-line="46" data-uid="ent0020" id="cluster_Google Cloud Platform"><path d="M2100.6016,818.7965 C2107.6097,811.6955 2114.9259,810.954 2119.9868,820.9982 C2124.2011,812.0771 2130.7582,812.7023 2135.8298,820.1694 C2142.3483,811.8707 2151.6891,811.0513 2157.1868,821.3422 C2162.1539,811.169 2168.5139,810.6885 2176.1441,818.5416 C2181.6589,811.5925 2186.7762,810.868 2192.6732,818.096 C2199.7626,808.5533 2206.3999,810.4151 2211.6996,819.8869 C2217.2275,811.8973 2224.4859,812.3531 2230.1025,819.781 C2237.1409,809.828 2244.9895,812.1088 2250.7356,821.1824 C2255.5971,812.7754 2262.6701,812.9725 2268.7268,819.768 C2276.3354,808.6805 2282.8306,808.3894 2290.2376,819.9594 C2295.476,810.8928 2304.729,812.4703 2309.1514,820.8443 C2314.1792,813.5566 2321.2174,811.3534 2326.775,820.2681 C2331.3963,812.8813 2340.2064,812.2592 2344.4129,820.7294 C2355.041,811.2494 2364.1371,810.6219 2369.4792,826.0491 C2369.808,825.823 2370.0874,825.9619 2370.1686,826.3343 C2387.2117,831.956 2385.6411,845.5415 2374.4281,855.316 C2388.5741,863.1192 2387.0565,876.3126 2372.482,882.0231 C2383.2348,888.9308 2386.6951,898.2826 2374.2092,906.8096 C2387.9725,921.3206 2382.7076,937.6524 2362.1875,939.5908 C2364.3615,939.2021 2365.2633,940.765 2364.6704,942.6339 C2358.4953,949.8732 2351.8037,951.9424 2346.4692,941.7559 C2340.5392,950.3826 2333.2319,950.0839 2327.2065,941.865 C2322.4694,952.5034 2315.298,951.7914 2307.8429,944.8606 C2300.5979,954.6898 2293.7613,953.2481 2287.1657,944.1511 C2283.2023,952.8076 2276.2533,953.4695 2269.958,946.7631 C2263.6438,955.314 2255.8026,956.2134 2250.6594,945.5849 C2247.0796,955.7007 2238.1899,955.1443 2232.5399,947.7239 C2225.2908,956.8098 2218.1687,954.4582 2213.2688,945.2493 C2207.7437,954.9467 2200.5824,953.8211 2195.338,944.9778 C2188.1874,953.4301 2179.8426,953.4402 2174.1406,943.324 C2168.3491,952.2863 2160.5755,950.8776 2155.8657,942.2032 C2151.3468,950.642 2143.1586,951.2078 2137.0395,944.1469 C2130.4286,951.9538 2122.5334,953.7048 2117.0084,942.9736 C2105.146,951.3236 2091.9761,949.7733 2090.5208,932.2991 C2092.2489,931.4402 2092.9374,932.3956 2093.0937,933.9646 C2079.6355,927.3247 2078.0823,917.6126 2088.1499,906.706 C2075.6855,900.3369 2073.0085,888.4089 2084.9341,879.1895 C2073.3494,869.66 2076.0054,859.3972 2088.5898,853.2775 C2075.9646,839.7528 2080.9912,824.415 2097.8125,818.7574 C2098.6145,817.4107 2099.838,817.3971 2100.6016,818.7965" fill="url(#g1db8yzr7h0ylc0)" filter="url(#f1db8yzr7h0ylc)" style="stroke:#2196F3;stroke-width:1.0417;"/><text fill="#222222" font-family="Verdana" font-size="12.5" font-weight="bold" lengthAdjust="spacing" textLength="158.8135" x="2150.5933" y="845.9852">Google Cloud Platform</text></g><!--entity Browser--><g class="entity" data-entity="Browser" data-source-line="12" data-uid="ent0004" id="entity_Browser"><polygon fill="url(#g1db8yzr7h0ylc0)" filter="url(#f1db8yzr7h0ylc)" points="993.3854,947.9449,1003.8021,937.5283,1214.3876,937.5283,1214.3876,993.7457,1203.9709,1004.1624,993.3854,1004.1624,993.3854,947.9449" style="stroke:#222222;stroke-width:1.0417;"/><line style="stroke:#222222;stroke-width:1.0417;" x1="1203.9709" x2="1214.3876" y1="947.9449" y2="937.5283"/><line style="stroke:#222222;stroke-width:1.0417;" x1="993.3854" x2="1203.9709" y1="947.9449" y2="947.9449"/><line style="stroke:#222222;stroke-width:1.0417;" x1="1203.9709" x2="1203.9709" y1="947.9449" y2="1004.1624"/><text fill="#222222" font-family="Verdana" font-size="12.5" lengthAdjust="spacing" textLength="158.5022" x="1019.4271" y="980.3811">Web Browser &#171;Frontend&#187;</text></g><!--entity FrontendStatic--><g class="entity" data-entity="FrontendStatic" data-source-line="18" data-uid="ent0007" id="entity_FrontendStatic"><rect fill="url(#g1db8yzr7h0ylc0)" filter="url(#f1db8yzr7h0ylc)" height="59.3424" rx="4.1667" ry="4.1667" style="stroke:#666666;stroke-width:1.0417;" width="253.1392" x="1528.9688" y="880.7574"/><polygon fill="url(#g1db8yzr7h0ylc0)" points="1764.3997,885.9658,1764.3997,900.5491,1776.8997,900.5491,1776.8997,892.2158,1770.6497,885.9658,1764.3997,885.9658" style="stroke:#666666;stroke-width:1.0417;"/><line style="stroke:#666666;stroke-width:1.0417;" x1="1770.6497" x2="1770.6497" y1="885.9658" y2="892.2158"/><line style="stroke:#666666;stroke-width:1.0417;" x1="1776.8997" x2="1770.6497" y1="892.2158" y2="892.2158"/><text fill="#666666" font-family="Verdana" font-size="12.5" lengthAdjust="spacing" textLength="201.0559" x="1549.8021" y="916.3186">Static Frontend (Next.js / React)</text></g><!--entity MySQL_DB--><g class="entity" data-entity="MySQL_DB" data-source-line="38" data-uid="ent0015" id="entity_MySQL_DB"><path d="M2096.4583,645.3408 C2096.4583,634.9241 2230.0022,634.9241 2230.0022,634.9241 C2230.0022,634.9241 2363.5461,634.9241 2363.5461,645.3408 L2363.5461,690.0999 C2363.5461,700.5166 2230.0022,700.5166 2230.0022,700.5166 C2230.0022,700.5166 2096.4583,700.5166 2096.4583,690.0999 L2096.4583,645.3408" fill="url(#g1db8yzr7h0ylc1)" filter="url(#f1db8yzr7h0ylc)" style="stroke:#2196F3;stroke-width:1.0417;"/><path d="M2096.4583,645.3408 C2096.4583,655.7574 2230.0022,655.7574 2230.0022,655.7574 C2230.0022,655.7574 2363.5461,655.7574 2363.5461,645.3408" fill="none" style="stroke:#2196F3;stroke-width:1.0417;"/><text fill="#222222" font-family="Verdana" font-size="12.5" lengthAdjust="spacing" textLength="225.4211" x="2117.2917" y="681.9436">MySQL Database (RDS) &#171;Database&#187;</text></g><!--entity Cognito--><g class="entity" data-entity="Cognito" data-source-line="39" data-uid="ent0016" id="entity_Cognito"><polygon fill="url(#g1db8yzr7h0ylc0)" filter="url(#f1db8yzr7h0ylc)" points="2119.1146,542.7366,2129.5313,532.3199,2340.898,532.3199,2340.898,588.5374,2330.4814,598.9541,2119.1146,598.9541,2119.1146,542.7366" style="stroke:#222222;stroke-width:1.0417;"/><line style="stroke:#222222;stroke-width:1.0417;" x1="2330.4814" x2="2340.898" y1="542.7366" y2="532.3199"/><line style="stroke:#222222;stroke-width:1.0417;" x1="2119.1146" x2="2330.4814" y1="542.7366" y2="542.7366"/><line style="stroke:#222222;stroke-width:1.0417;" x1="2330.4814" x2="2330.4814" y1="542.7366" y2="598.9541"/><text fill="#222222" font-family="Verdana" font-size="12.5" lengthAdjust="spacing" textLength="159.2834" x="2145.1563" y="575.1727">Cognito &#171;Authentication&#187;</text></g><!--entity S3Bucket--><g class="entity" data-entity="S3Bucket" data-source-line="40" data-uid="ent0017" id="entity_S3Bucket"><rect fill="url(#g1db8yzr7h0ylc2)" filter="url(#f1db8yzr7h0ylc)" height="56.2174" rx="36.4583" ry="36.4583" style="stroke:#FF9800;stroke-width:1.0417;" width="269.4071" x="2095.3021" y="439.6116"/><text fill="#FFFFFF" font-family="Verdana" font-size="12.5" lengthAdjust="spacing" textLength="227.7405" x="2116.1354" y="472.0477">S3 Bucket (User Uploads) &#171;Storage&#187;</text></g><!--entity SES--><g class="entity" data-entity="SES" data-source-line="41" data-uid="ent0018" id="entity_SES"><polygon fill="url(#g1db8yzr7h0ylc0)" filter="url(#f1db8yzr7h0ylc)" points="2094.7396,346.9033,2105.1563,336.4866,2365.2779,336.4866,2365.2779,392.7041,2354.8612,403.1207,2094.7396,403.1207,2094.7396,346.9033" style="stroke:#222222;stroke-width:1.0417;"/><line style="stroke:#222222;stroke-width:1.0417;" x1="2354.8612" x2="2365.2779" y1="346.9033" y2="336.4866"/><line style="stroke:#222222;stroke-width:1.0417;" x1="2094.7396" x2="2354.8612" y1="346.9033" y2="346.9033"/><line style="stroke:#222222;stroke-width:1.0417;" x1="2354.8612" x2="2354.8612" y1="346.9033" y2="403.1207"/><text fill="#222222" font-family="Verdana" font-size="12.5" lengthAdjust="spacing" textLength="208.0383" x="2120.7813" y="379.3394">SES (Email Service) &#171;Messaging&#187;</text></g><!--entity ECR--><g class="entity" data-entity="ECR" data-source-line="42" data-uid="ent0019" id="entity_ECR"><polygon fill="url(#g1db8yzr7h0ylc0)" filter="url(#f1db8yzr7h0ylc)" points="415.125,225.0283,425.5417,214.6116,792.3406,214.6116,792.3406,270.8291,781.9239,281.2457,415.125,281.2457,415.125,225.0283" style="stroke:#222222;stroke-width:1.0417;"/><line style="stroke:#222222;stroke-width:1.0417;" x1="781.9239" x2="792.3406" y1="225.0283" y2="214.6116"/><line style="stroke:#222222;stroke-width:1.0417;" x1="415.125" x2="781.9239" y1="225.0283" y2="225.0283"/><line style="stroke:#222222;stroke-width:1.0417;" x1="781.9239" x2="781.9239" y1="225.0283" y2="281.2457"/><text fill="#222222" font-family="Verdana" font-size="12.5" lengthAdjust="spacing" textLength="314.7156" x="441.1667" y="257.4644">Elastic Container Registry (ECR) &#171;Image Registry&#187;</text></g><!--entity EB_LB--><g class="entity" data-entity="EB_LB" data-source-line="30" data-uid="ent0011" id="entity_EB_LB"><polygon fill="url(#g1db8yzr7h0ylc0)" filter="url(#f1db8yzr7h0ylc)" points="527.8958,456.2783,538.3125,445.8616,679.5682,445.8616,679.5682,502.0791,669.1515,512.4957,527.8958,512.4957,527.8958,456.2783" style="stroke:#222222;stroke-width:1.0417;"/><line style="stroke:#222222;stroke-width:1.0417;" x1="669.1515" x2="679.5682" y1="456.2783" y2="445.8616"/><line style="stroke:#222222;stroke-width:1.0417;" x1="527.8958" x2="669.1515" y1="456.2783" y2="456.2783"/><line style="stroke:#222222;stroke-width:1.0417;" x1="669.1515" x2="669.1515" y1="456.2783" y2="512.4957"/><text fill="#222222" font-family="Verdana" font-size="12.5" lengthAdjust="spacing" textLength="89.1724" x="553.9375" y="488.7144">Load Balancer</text></g><!--entity BackendAPI--><g class="entity" data-entity="BackendAPI" data-source-line="33" data-uid="ent0014" id="entity_BackendAPI"><rect fill="url(#g1db8yzr7h0ylc0)" filter="url(#f1db8yzr7h0ylc)" height="59.3424" rx="4.1667" ry="4.1667" style="stroke:#666666;stroke-width:1.0417;" width="301.3082" x="1504.8854" y="533.8824"/><polygon fill="url(#g1db8yzr7h0ylc0)" points="1788.4853,539.0908,1788.4853,553.6741,1800.9853,553.6741,1800.9853,545.3408,1794.7353,539.0908,1788.4853,539.0908" style="stroke:#666666;stroke-width:1.0417;"/><line style="stroke:#666666;stroke-width:1.0417;" x1="1794.7353" x2="1794.7353" y1="539.0908" y2="545.3408"/><line style="stroke:#666666;stroke-width:1.0417;" x1="1800.9853" x2="1794.7353" y1="545.3408" y2="545.3408"/><text fill="#666666" font-family="Verdana" font-size="12.5" lengthAdjust="spacing" textLength="249.2249" x="1525.7188" y="569.4436">BookTable API (Spring Boot) &#171;Backend&#187;</text></g><!--entity GoogleMapsAPI--><g class="entity" data-entity="GoogleMapsAPI" data-source-line="47" data-uid="ent0021" id="entity_GoogleMapsAPI"><polygon fill="url(#g1db8yzr7h0ylc0)" filter="url(#f1db8yzr7h0ylc)" points="2098.8542,875.0283,2109.2708,864.6116,2361.1466,864.6116,2361.1466,920.8291,2350.73,931.2457,2098.8542,931.2457,2098.8542,875.0283" style="stroke:#222222;stroke-width:1.0417;"/><line style="stroke:#222222;stroke-width:1.0417;" x1="2350.73" x2="2361.1466" y1="875.0283" y2="864.6116"/><line style="stroke:#222222;stroke-width:1.0417;" x1="2098.8542" x2="2350.73" y1="875.0283" y2="875.0283"/><line style="stroke:#222222;stroke-width:1.0417;" x1="2350.73" x2="2350.73" y1="875.0283" y2="931.2457"/><text fill="#222222" font-family="Verdana" font-size="12.5" lengthAdjust="spacing" textLength="199.7925" x="2124.8958" y="907.4644">Google Maps API &#171;External API&#187;</text></g><!--entity User--><g class="entity" data-entity="User" data-source-line="5" data-uid="ent0002" id="entity_User"><ellipse cx="603.7352" cy="929.1949" fill="url(#g1db8yzr7h0ylc1)" filter="url(#f1db8yzr7h0ylc)" rx="8.3333" ry="8.3333" style="stroke:#2196F3;stroke-width:1.0417;"/><path d="M603.7352,937.5283 L603.7352,965.6533 M590.1935,945.8616 L617.2769,945.8616 M603.7352,965.6533 L590.1935,981.2783 M603.7352,965.6533 L617.2769,981.2783" fill="none" filter="url(#f1db8yzr7h0ylc)" style="stroke:#2196F3;stroke-width:1.0417;"/><text fill="#222222" font-family="Verdana" font-size="12.5" lengthAdjust="spacing" textLength="28.4912" x="589.4896" y="1008.5061">User</text></g><!--entity Spacer1--><g class="entity" data-entity="Spacer1" data-source-line="24" data-uid="ent0008" id="entity_Spacer1"><rect fill="url(#g1db8yzr7h0ylc1)" filter="url(#f1db8yzr7h0ylc)" height="20.8333" rx="4.1667" ry="4.1667" style="stroke:#2196F3;stroke-width:1.0417;" width="20.8333" x="101.8333" y="217.7158"/></g><!--entity GitHubActions--><g class="entity" data-entity="GitHubActions" data-source-line="51" data-uid="ent0022" id="entity_GitHubActions"><rect fill="url(#g1db8yzr7h0ylc1)" filter="url(#f1db8yzr7h0ylc)" height="56.2174" rx="4.1667" ry="4.1667" style="stroke:#2196F3;stroke-width:1.0417;" width="189.0849" x="17.7083" y="275.0283"/><text fill="#FFFFFF" font-family="Verdana" font-size="12.5" lengthAdjust="spacing" textLength="147.4182" x="38.5417" y="307.4644">GitHub Actions &#171;CI/CD&#187;</text></g><!--link User to Browser--><g class="link" data-entity-1="User" data-entity-2="Browser" data-source-line="54" data-uid="lnk23" id="link_User_Browser"><path d="M628.8021,970.8408 C693.4583,970.8408 868.0417,970.8408 986.7396,970.8408" fill="none" id="User-to-Browser" style="stroke:#2196F3;stroke-width:3.125;"/><polygon fill="#2196F3" points="992.9896,970.8408,983.6146,966.6741,987.7813,970.8408,983.6146,975.0074,992.9896,970.8408" style="stroke:#2196F3;stroke-width:3.125;"/><text fill="#222222" font-family="Verdana" font-size="12.5" lengthAdjust="spacing" textLength="114.1724" x="835.0521" y="957.4436">Interacts with App</text></g><!--link Browser to FrontendHost--><g class="link" data-entity-1="Browser" data-entity-2="FrontendHost" data-source-line="56" data-uid="lnk24" id="link_Browser_FrontendHost"><path d="M1214.75,984.0804 C1225.875,985.0595 1237.0104,985.8824 1247.7188,986.4658 C1336.5938,991.3147 1436.5234,989.1194 1515.0964,985.6403 C1516.3241,985.5859 1511.3029,985.8132 1512.5201,985.7582" fill="none" id="Browser-to-FrontendHost" style="stroke:#2196F3;stroke-width:3.125;stroke-dasharray:7.0,7.0;"/><polygon fill="#2196F3" points="1518.7637,985.4762,1509.2103,981.7368,1513.5607,985.7112,1509.5862,990.0616,1518.7637,985.4762" style="stroke:#2196F3;stroke-width:3.125;"/><text fill="#222222" font-family="Verdana" font-size="12.5" lengthAdjust="spacing" textLength="118.9819" x="1284.6979" y="973.0686">Loads App (HTTPS)</text></g><!--link FrontendStatic to Browser--><g class="link" data-entity-1="FrontendStatic" data-entity-2="Browser" data-source-line="57" data-uid="lnk25" id="link_FrontendStatic_Browser"><path d="M1528.6667,918.5595 C1448.1458,924.4658 1341.5521,933.5699 1247.7188,945.8408 C1236.9896,947.247 1232.0067,947.9065 1220.8712,949.6669" fill="none" id="FrontendStatic-to-Browser" style="stroke:#2196F3;stroke-width:3.125;stroke-dasharray:7.0,7.0;"/><polygon fill="#2196F3" points="1214.6979,950.6429,1224.6085,953.2945,1219.8424,949.8296,1223.3073,945.0634,1214.6979,950.6429" style="stroke:#2196F3;stroke-width:3.125;"/><text fill="#222222" font-family="Verdana" font-size="12.5" lengthAdjust="spacing" textLength="59.1736" x="1314.9063" y="912.6519">Serves UI</text></g><!--link Browser to BackendAPI--><g class="link" data-entity-1="Browser" data-entity-2="BackendAPI" data-source-line="59" data-uid="lnk26" id="link_Browser_BackendAPI"><path d="M1150.3646,937.1637 C1255.4167,859.3095 1508.7285,671.5827 1608.8847,597.364" fill="none" id="Browser-to-BackendAPI" style="stroke:#2196F3;stroke-width:3.125;"/><polygon fill="#2196F3" points="1613.9063,593.6429,1603.8932,595.8768,1609.7216,596.7438,1608.8547,602.5722,1613.9063,593.6429" style="stroke:#2196F3;stroke-width:3.125;"/><text fill="#222222" font-family="Verdana" font-size="12.5" lengthAdjust="spacing" textLength="170.4895" x="1259.1771" y="711.6102">API Requests (HTTPS/JSON)</text></g><!--link EB_LB to EB_EC2--><g class="link" data-entity-1="EB_LB" data-entity-2="EB_EC2" data-source-line="61" data-uid="lnk27" id="link_EB_LB_EB_EC2"><path d="M680.0313,491.8199 C751.9896,502.2262 863.5,513.9554 960.0521,505.2158 C991.6719,502.3564 1026.7578,496.0048 1054.237,490.2913 C1067.9766,487.4345 1079.8145,484.7373 1088.3665,482.7158 C1090.5046,482.2104 1092.4372,481.7473 1094.1429,481.3344 C1094.3561,481.2828 1094.5658,481.232 1094.7718,481.182 C1094.8749,481.157 1088.9038,482.6083 1089.005,482.5836" fill="none" id="EB_LB-to-EB_EC2" style="stroke:#2196F3;stroke-width:3.125;"/><polygon fill="#2196F3" points="1095.0782,481.1076,1084.9844,479.2729,1090.0172,482.3376,1086.9525,487.3705,1095.0782,481.1076" style="stroke:#2196F3;stroke-width:3.125;"/><text fill="#222222" font-family="Verdana" font-size="12.5" lengthAdjust="spacing" textLength="105.1819" x="839.7396" y="491.8186">Routes Requests</text></g><!--link EB_EC2 to BackendAPI--><g class="link" data-entity-1="EB_EC2" data-entity-2="BackendAPI" data-source-line="62" data-uid="lnk28" id="link_EB_EC2_BackendAPI"><path d="M1105.0313,479.1949 C1110.5521,480.0387 1337.5516,514.8923 1498.3432,539.5798" fill="none" id="EB_EC2-to-BackendAPI" style="stroke:#2196F3;stroke-width:3.125;"/><polygon fill="#2196F3" points="1504.5208,540.5283,1495.8867,534.9871,1499.3728,539.7379,1494.6221,543.2239,1504.5208,540.5283" style="stroke:#2196F3;stroke-width:3.125;"/></g><!--link BackendAPI to MySQL_DB--><g class="link" data-entity-1="BackendAPI" data-entity-2="MySQL_DB" data-source-line="64" data-uid="lnk29" id="link_BackendAPI_MySQL_DB"><path d="M1806.5938,590.8512 C1896.3542,607.1845 2003.2781,626.6489 2089.8301,642.3989" fill="none" id="BackendAPI-to-MySQL_DB" style="stroke:#2196F3;stroke-width:3.125;"/><polygon fill="#2196F3" points="2095.9792,643.5179,2087.5016,637.7401,2090.855,642.5854,2086.0097,645.9388,2095.9792,643.5179" style="stroke:#2196F3;stroke-width:3.125;"/><text fill="#222222" font-family="Verdana" font-size="12.5" lengthAdjust="spacing" textLength="77.6001" x="1954.6354" y="600.1519">JDBC Access</text></g><!--link BackendAPI to Cognito--><g class="link" data-entity-1="BackendAPI" data-entity-2="Cognito" data-source-line="65" data-uid="lnk30" id="link_BackendAPI_Cognito"><path d="M1806.5938,564.1012 C1904.4688,564.4554 2023.8125,564.8909 2112.5209,565.2139" fill="none" id="BackendAPI-to-Cognito" style="stroke:#2196F3;stroke-width:3.125;"/><polygon fill="#2196F3" points="2118.7708,565.2366,2109.4111,561.0358,2113.5625,565.2176,2109.3807,569.3691,2118.7708,565.2366" style="stroke:#2196F3;stroke-width:3.125;"/><text fill="#222222" font-family="Verdana" font-size="12.5" lengthAdjust="spacing" textLength="118.0054" x="1934.3229" y="551.1936">Auth (OAuth2/JWT)</text></g><!--link BackendAPI to S3Bucket--><g class="link" data-entity-1="BackendAPI" data-entity-2="S3Bucket" data-source-line="66" data-uid="lnk31" id="link_BackendAPI_S3Bucket"><path d="M1806.5938,538.4345 C1896.0208,523.4658 2002.4295,505.6436 2088.8566,491.1748" fill="none" id="BackendAPI-to-S3Bucket" style="stroke:#2196F3;stroke-width:3.125;"/><polygon fill="#2196F3" points="2095.0208,490.1429,2085.0865,487.5813,2089.884,491.0028,2086.4625,495.8003,2095.0208,490.1429" style="stroke:#2196F3;stroke-width:3.125;"/><text fill="#222222" font-family="Verdana" font-size="12.5" lengthAdjust="spacing" textLength="90.4236" x="1948.3854" y="483.4852">Media Storage</text></g><!--link BackendAPI to SES--><g class="link" data-entity-1="BackendAPI" data-entity-2="SES" data-source-line="67" data-uid="lnk32" id="link_BackendAPI_SES"><path d="M1721.5729,533.4762 C1774.9063,509.4866 1852.8021,476.0595 1922.8646,452.0908 C1978.3125,433.1324 2034.5522,417.2661 2088.3959,403.3807" fill="none" id="BackendAPI-to-SES" style="stroke:#2196F3;stroke-width:3.125;"/><polygon fill="#2196F3" points="2094.4479,401.8199,2084.3294,400.1263,2089.4046,403.1205,2086.4104,408.1957,2094.4479,401.8199" style="stroke:#2196F3;stroke-width:3.125;"/><text fill="#222222" font-family="Verdana" font-size="12.5" lengthAdjust="spacing" textLength="116.8884" x="1934.8438" y="399.1102">Email Notifications</text></g><!--link BackendAPI to GoogleMapsAPI--><g class="link" data-entity-1="BackendAPI" data-entity-2="GoogleMapsAPI" data-source-line="68" data-uid="lnk33" id="link_BackendAPI_GoogleMapsAPI"><path d="M1693.9063,593.622 C1744.1146,633.2574 1837.0208,703.8616 1922.8646,754.1741 C1995.9271,797.0074 2078.0893,834.7419 2140.9227,861.6898" fill="none" id="BackendAPI-to-GoogleMapsAPI" style="stroke:#2196F3;stroke-width:3.125;"/><polygon fill="#2196F3" points="2146.6667,864.1533,2139.693,856.6287,2141.88,862.1004,2136.4083,864.2874,2146.6667,864.1533" style="stroke:#2196F3;stroke-width:3.125;"/><text fill="#222222" font-family="Verdana" font-size="12.5" lengthAdjust="spacing" textLength="110.8826" x="1937.9688" y="740.7769">Map &amp; Geocoding</text></g><!--link GitHubActions to ECR--><g class="link" data-entity-1="GitHubActions" data-entity-2="ECR" data-source-line="70" data-uid="lnk34" id="link_GitHubActions_ECR"><path d="M207.0729,292.5595 C265.9167,285.9241 337.6435,277.8223 408.7789,269.8015" fill="none" id="GitHubActions-to-ECR" style="stroke:#2196F3;stroke-width:3.125;"/><polygon fill="#2196F3" points="414.9896,269.1012,405.2068,266.0112,409.814,269.6848,406.1405,274.292,414.9896,269.1012" style="stroke:#2196F3;stroke-width:3.125;"/><text fill="#222222" font-family="Verdana" font-size="12.5" lengthAdjust="spacing" textLength="121.2036" x="249.5" y="260.5686">Push Docker Image</text></g><!--link GitHubActions to EBEnv--><g class="link" data-entity-1="GitHubActions" data-entity-2="EBEnv" data-source-line="71" data-uid="lnk35" id="link_GitHubActions_EBEnv"><path d="M207.2396,330.8095 C217.5833,333.3199 228,335.622 238.0417,337.5074 C316.5521,352.2522 406.1146,357.2783 476.8307,358.5804 C485.6702,358.7431 487.9654,358.8034 496.1576,358.8615" fill="none" id="GitHubActions-to-EBEnv" style="stroke:#2196F3;stroke-width:3.125;"/><polygon fill="#2196F3" points="502.4075,358.9058,493.0622,354.6727,497.1993,358.8689,493.0032,363.0059,502.4075,358.9058" style="stroke:#2196F3;stroke-width:3.125;"/><text fill="#222222" font-family="Verdana" font-size="12.5" lengthAdjust="spacing" textLength="119.6533" x="250.5417" y="324.1102">Deploy App Bundle</text></g><!--link ECR to EB_EC2--><g class="link" data-entity-1="ECR" data-entity-2="EB_EC2" data-source-line="72" data-uid="lnk36" id="link_ECR_EB_EC2"><path d="M751.5,281.7158 C817.9271,300.6741 895.7708,328.1741 960.0521,365.6324 C994.5313,385.7314 1029.6615,413.5517 1056.4492,436.6233 C1069.8431,448.1591 1081.1514,458.5078 1089.2498,466.1105 C1091.2745,468.0111 1093.0985,469.7402 1094.7043,471.2733 C1094.8047,471.3691 1090.3857,467.1461 1090.4843,467.2403" fill="none" id="ECR-to-EB_EC2" style="stroke:#2196F3;stroke-width:3.125;"/><polygon fill="#2196F3" points="1095.0028,471.5584,1091.1038,462.069,1091.2374,467.96,1085.3464,468.0936,1095.0028,471.5584" style="stroke:#2196F3;stroke-width:3.125;"/><text fill="#222222" font-family="Verdana" font-size="12.5" lengthAdjust="spacing" textLength="113.7146" x="835.0521" y="293.9019">Pull Docker Image</text></g><!--link Browser to GoogleMapsAPI--><g class="link" data-entity-1="Browser" data-entity-2="GoogleMapsAPI" data-source-line="74" data-uid="lnk37" id="link_Browser_GoogleMapsAPI"><path d="M1214.8021,997.5595 C1371.6146,1031.4866 1667.9271,1079.9866 1914.5313,1030.2158 C2007.5625,1011.4449 2101.8095,967.2647 2163.4241,934.6501" fill="none" id="Browser-to-GoogleMapsAPI" style="stroke:#2196F3;stroke-width:3.125;"/><polygon fill="#2196F3" points="2168.9479,931.7262,2158.7128,932.4296,2164.3447,934.1628,2162.6114,939.7947,2168.9479,931.7262" style="stroke:#2196F3;stroke-width:3.125;"/><text fill="#222222" font-family="Verdana" font-size="12.5" lengthAdjust="spacing" textLength="93.3167" x="1609.1875" y="1016.8186">Load Map Tiles</text></g><!--SRC=[TLLDS-8u4BthL_Hoc8K3IStCZSgc2dyCSOeOreR9SKhO2cWnabUIaw6syj-t9Sk0oGm7mEhNhrlT_Tf_c1qxC3XGmnIdX1XkAWOHgojvF31X8E9qg-Y145eOgM2jcIAaOYy6Z0J5jpi39LUiC5mAelTSr1JXKCX3BGKIvEQ8X1P0nRPYXFm9Vvq-iCxZ3ABuUnB65yT4o9B1mCR2L5vvmGRm7m5eZv_P1W8btwprxkwRai8mKTxV3u3gpa3Uhm9zonRfAauZU5ZagoITNKOhAjcKC0YZ56x1iZz8RRZONWRzpbJ1AhHF3tN5NuuOEJVKyA83-_XTElRKkGDGPVWBLWy6tgF3m31bFytDFnffCuQ8KO-YHIF5UtkRlAO5NhdYWi5menZTmuQPDyO4xDeSW2Bfz3aV8NgruneQpJGU0XUlNFCDDkBK5zi-qPHR1XKzoiR06pSx-rlGHbikffHKcfmT1k3IQzFuV5LVZ0hXVB6EVb5OPtD_XuqUlp5jnfz7jhYdwiOLrROo0QD26rhjyO9IxWt5bCUqhiTCl8wmvDEwlgft7CJYrHUwvPfBMa90AoemJO_vCGyk477u1QODtZylQ6MlEbEogJkejRPy7JwInHuB7s9RA1PV3Kxso-O6cF3A9WpJPGB3l5QM6a-DpJoWo76UqlO9WPxedNJVxxOg9SMhKusnduxvttE8kkTX5kMMhZlmV0xr8mfE1GtbLd2y8PQiGOKBB2wr2lLuRqQuHb5J7891_XM21hCoC7IwM-C6eAKUkK5t6E-RVsrnfrXvdCCmFb1UGSwKLQjrUc9Qq-svKOZwqEvJHN7yjrmRTKIYCBFkoS5crHrtpGwp3yAUBHQpUVpRsPj9YLl7Zz-oekP5giEbi3tWYTRQDUxkBlw9kr3GoZxwm2t8OcpBhbC8azimWcMoZET9sjjZ5-APSVFGR63g5gN6CCwhutT6RxjcNwHf7AwIHPfVKhicZSVtfrKuWGJNXi9Pr4xBW68XfBFUtDptTzC4h52qHS7mORLQujReRnxdSsQtlSLjiaxEf2xyQPGHOxypzc-34jUUzVOnNwGZGfm8dOVNs0GoN3V8s3aGR-YpOhHp16lgPXq97gCWn8eME6hNg4u04wlq7GmNzkVBxUFpQdGDxGOQiK-iv1Jyl7_0uPnFe1tqLABilQO-nEvDYsMbDNo26PE5B54GXFJQtTOap12uRFGE_BPn0lWLqYsyYNz5k_O5ZIZnpMevUlLTDbNLf-jrxZfDjpXjhYjUCVq_]--></g></svg>